<mxfile host="app.diagrams.net" agent="Mozilla/5.0 (Windows NT 10.0; Win64; x64) AppleWebKit/537.36 (KHTML, like Gecko) Chrome/137.0.0.0 Safari/537.36" version="26.0.6">
  <diagram name="EDR" id="e7e014a7-5840-1c2e-5031-d8a46d1fe8dd">
    <mxGraphModel dx="2260" dy="724" grid="0" gridSize="10" guides="1" tooltips="1" connect="1" arrows="1" fold="1" page="0" pageScale="1" pageWidth="1169" pageHeight="826" background="none" math="0" shadow="0">
      <root>
        <mxCell id="0" />
        <mxCell id="1" parent="0" />
        <mxCell id="2" value="Equipo de Seguridad" style="swimlane;whiteSpace=wrap;startSize=55;labelBackgroundColor=none;fillColor=#A8DADC;strokeColor=#457B9D;fontColor=#1D3557;" parent="1" vertex="1">
          <mxGeometry x="120" y="128" width="350" height="1681" as="geometry" />
        </mxCell>
        <mxCell id="5" value="" style="ellipse;shape=startState;fillColor=#000000;strokeColor=#457B9D;labelBackgroundColor=none;fontColor=#1D3557;" parent="2" vertex="1">
          <mxGeometry x="160.01" y="98" width="30" height="30" as="geometry" />
        </mxCell>
        <mxCell id="6" value="" style="edgeStyle=elbowEdgeStyle;elbow=horizontal;verticalAlign=bottom;endArrow=open;endSize=8;strokeColor=#457B9D;endFill=1;rounded=0;labelBackgroundColor=none;fontColor=default;" parent="2" source="5" target="7" edge="1">
          <mxGeometry x="100" y="40" as="geometry">
            <mxPoint x="137.25" y="110" as="targetPoint" />
          </mxGeometry>
        </mxCell>
        <mxCell id="7" value="Iniciar diagnostico &#xa;del entorno" style="labelBackgroundColor=none;fillColor=#A8DADC;strokeColor=#457B9D;fontColor=#1D3557;" parent="2" vertex="1">
          <mxGeometry x="120" y="145" width="110" height="50" as="geometry" />
        </mxCell>
        <mxCell id="8" value="Auditar estado del&#xa;Antivirus (AV)" style="labelBackgroundColor=none;fillColor=#A8DADC;strokeColor=#457B9D;fontColor=#1D3557;" parent="2" vertex="1">
          <mxGeometry x="120" y="220" width="110" height="50" as="geometry" />
        </mxCell>
        <mxCell id="9" value="" style="endArrow=open;strokeColor=#457B9D;endFill=1;rounded=0;labelBackgroundColor=none;fontColor=default;" parent="2" source="7" target="8" edge="1">
          <mxGeometry relative="1" as="geometry" />
        </mxCell>
        <mxCell id="20" value="" style="endArrow=open;strokeColor=#457B9D;endFill=1;rounded=0;entryX=0.5;entryY=0;entryDx=0;entryDy=0;exitX=0.5;exitY=1;exitDx=0;exitDy=0;labelBackgroundColor=none;fontColor=default;" parent="2" source="8" target="8S9cBLbXIqOXu_hmC1Cv-59" edge="1">
          <mxGeometry relative="1" as="geometry">
            <mxPoint x="175" y="362" as="sourcePoint" />
          </mxGeometry>
        </mxCell>
        <mxCell id="8S9cBLbXIqOXu_hmC1Cv-59" value="El AV esta &#xa;actualizado?" style="rhombus;fillColor=#A8DADC;strokeColor=#457B9D;labelBackgroundColor=none;fontColor=#1D3557;" vertex="1" parent="2">
          <mxGeometry x="92.25" y="294" width="165.5" height="78" as="geometry" />
        </mxCell>
        <mxCell id="8S9cBLbXIqOXu_hmC1Cv-62" value="Registrar&#xa;Cumplimiento" style="labelBackgroundColor=none;fillColor=#A8DADC;strokeColor=#457B9D;fontColor=#1D3557;" vertex="1" parent="2">
          <mxGeometry x="10.01" y="363" width="110" height="50" as="geometry" />
        </mxCell>
        <mxCell id="8S9cBLbXIqOXu_hmC1Cv-63" value="Notifiacar a TI para&#xa;Actualizar firmas" style="labelBackgroundColor=none;fillColor=#A8DADC;strokeColor=#457B9D;fontColor=#1D3557;" vertex="1" parent="2">
          <mxGeometry x="230.01" y="363" width="110" height="50" as="geometry" />
        </mxCell>
        <mxCell id="8S9cBLbXIqOXu_hmC1Cv-64" value="" style="edgeStyle=none;strokeColor=#457B9D;endArrow=open;endFill=1;rounded=0;exitX=1;exitY=0.5;exitDx=0;exitDy=0;entryX=0.5;entryY=0;entryDx=0;entryDy=0;labelBackgroundColor=none;fontColor=default;" edge="1" parent="2" source="8S9cBLbXIqOXu_hmC1Cv-59" target="8S9cBLbXIqOXu_hmC1Cv-63">
          <mxGeometry width="100" height="100" relative="1" as="geometry">
            <mxPoint x="562.25" y="301.5" as="sourcePoint" />
            <mxPoint x="257.75" y="394" as="targetPoint" />
            <Array as="points">
              <mxPoint x="285" y="334" />
            </Array>
          </mxGeometry>
        </mxCell>
        <mxCell id="8S9cBLbXIqOXu_hmC1Cv-65" value="" style="edgeStyle=none;strokeColor=#457B9D;endArrow=open;endFill=1;rounded=0;exitX=0;exitY=0.5;exitDx=0;exitDy=0;entryX=0.5;entryY=0;entryDx=0;entryDy=0;labelBackgroundColor=none;fontColor=default;" edge="1" parent="2" source="8S9cBLbXIqOXu_hmC1Cv-59" target="8S9cBLbXIqOXu_hmC1Cv-62">
          <mxGeometry width="100" height="100" relative="1" as="geometry">
            <mxPoint x="268.25" y="343" as="sourcePoint" />
            <mxPoint x="263.25" y="414" as="targetPoint" />
            <Array as="points">
              <mxPoint x="65" y="334" />
            </Array>
          </mxGeometry>
        </mxCell>
        <mxCell id="8S9cBLbXIqOXu_hmC1Cv-68" value="NO" style="text;html=1;align=center;verticalAlign=middle;resizable=0;points=[];autosize=1;strokeColor=none;fillColor=none;labelBackgroundColor=none;fontColor=#1D3557;" vertex="1" parent="2">
          <mxGeometry x="265" y="294" width="40" height="30" as="geometry" />
        </mxCell>
        <mxCell id="8S9cBLbXIqOXu_hmC1Cv-67" value="SI" style="text;html=1;align=center;verticalAlign=middle;resizable=0;points=[];autosize=1;strokeColor=none;fillColor=none;labelBackgroundColor=none;fontColor=#1D3557;" vertex="1" parent="2">
          <mxGeometry x="45" y="292" width="30" height="30" as="geometry" />
        </mxCell>
        <mxCell id="8S9cBLbXIqOXu_hmC1Cv-69" value="EDR esta desplegado&#xa;en todos los &#xa;equipos?" style="rhombus;fillColor=#A8DADC;strokeColor=#457B9D;labelBackgroundColor=none;fontColor=#1D3557;" vertex="1" parent="2">
          <mxGeometry x="92.26" y="457" width="165.5" height="100" as="geometry" />
        </mxCell>
        <mxCell id="8S9cBLbXIqOXu_hmC1Cv-72" value="" style="edgeStyle=none;strokeColor=#457B9D;endArrow=open;endFill=1;rounded=0;entryX=0.5;entryY=0;entryDx=0;entryDy=0;exitX=0.5;exitY=1;exitDx=0;exitDy=0;labelBackgroundColor=none;fontColor=default;" edge="1" parent="2" source="8S9cBLbXIqOXu_hmC1Cv-62" target="8S9cBLbXIqOXu_hmC1Cv-69">
          <mxGeometry width="100" height="100" relative="1" as="geometry">
            <mxPoint x="50" y="492" as="sourcePoint" />
            <mxPoint x="75" y="414" as="targetPoint" />
            <Array as="points">
              <mxPoint x="65" y="442" />
              <mxPoint x="176" y="441" />
            </Array>
          </mxGeometry>
        </mxCell>
        <mxCell id="8S9cBLbXIqOXu_hmC1Cv-73" value="" style="edgeStyle=none;strokeColor=#457B9D;endArrow=open;endFill=1;rounded=0;exitX=0.5;exitY=1;exitDx=0;exitDy=0;entryX=0.5;entryY=0;entryDx=0;entryDy=0;labelBackgroundColor=none;fontColor=default;" edge="1" parent="2" source="8S9cBLbXIqOXu_hmC1Cv-63" target="8S9cBLbXIqOXu_hmC1Cv-69">
          <mxGeometry width="100" height="100" relative="1" as="geometry">
            <mxPoint x="75" y="464" as="sourcePoint" />
            <mxPoint x="260" y="512" as="targetPoint" />
            <Array as="points">
              <mxPoint x="285" y="440" />
              <mxPoint x="175" y="441" />
            </Array>
          </mxGeometry>
        </mxCell>
        <mxCell id="8S9cBLbXIqOXu_hmC1Cv-74" value="Registrar&#xa;Cumplimiento" style="labelBackgroundColor=none;fillColor=#A8DADC;strokeColor=#457B9D;fontColor=#1D3557;" vertex="1" parent="2">
          <mxGeometry x="10.01" y="549" width="110" height="50" as="geometry" />
        </mxCell>
        <mxCell id="8S9cBLbXIqOXu_hmC1Cv-75" value="Notifiacar a TI para&#xa;Actualizar firmas" style="labelBackgroundColor=none;fillColor=#A8DADC;strokeColor=#457B9D;fontColor=#1D3557;" vertex="1" parent="2">
          <mxGeometry x="230.01" y="549" width="110" height="50" as="geometry" />
        </mxCell>
        <mxCell id="8S9cBLbXIqOXu_hmC1Cv-76" value="" style="edgeStyle=none;strokeColor=#457B9D;endArrow=open;endFill=1;rounded=0;entryX=0.5;entryY=0;entryDx=0;entryDy=0;exitX=1;exitY=0.5;exitDx=0;exitDy=0;labelBackgroundColor=none;fontColor=default;" edge="1" parent="2" target="8S9cBLbXIqOXu_hmC1Cv-75" source="8S9cBLbXIqOXu_hmC1Cv-69">
          <mxGeometry width="100" height="100" relative="1" as="geometry">
            <mxPoint x="260.01" y="507" as="sourcePoint" />
            <mxPoint x="257.76" y="568" as="targetPoint" />
            <Array as="points">
              <mxPoint x="285.01" y="508" />
            </Array>
          </mxGeometry>
        </mxCell>
        <mxCell id="8S9cBLbXIqOXu_hmC1Cv-77" value="" style="edgeStyle=none;strokeColor=#457B9D;endArrow=open;endFill=1;rounded=0;exitX=0;exitY=0.5;exitDx=0;exitDy=0;entryX=0.5;entryY=0;entryDx=0;entryDy=0;labelBackgroundColor=none;fontColor=default;" edge="1" parent="2" target="8S9cBLbXIqOXu_hmC1Cv-74">
          <mxGeometry width="100" height="100" relative="1" as="geometry">
            <mxPoint x="92.01" y="507" as="sourcePoint" />
            <mxPoint x="263.26" y="588" as="targetPoint" />
            <Array as="points">
              <mxPoint x="65.01" y="508" />
            </Array>
          </mxGeometry>
        </mxCell>
        <mxCell id="8S9cBLbXIqOXu_hmC1Cv-78" value="NO" style="text;html=1;align=center;verticalAlign=middle;resizable=0;points=[];autosize=1;strokeColor=none;fillColor=none;labelBackgroundColor=none;fontColor=#1D3557;" vertex="1" parent="2">
          <mxGeometry x="257.76" y="477" width="40" height="30" as="geometry" />
        </mxCell>
        <mxCell id="8S9cBLbXIqOXu_hmC1Cv-79" value="SI" style="text;html=1;align=center;verticalAlign=middle;resizable=0;points=[];autosize=1;strokeColor=none;fillColor=none;labelBackgroundColor=none;fontColor=#1D3557;" vertex="1" parent="2">
          <mxGeometry x="62.26" y="477" width="30" height="30" as="geometry" />
        </mxCell>
        <mxCell id="8S9cBLbXIqOXu_hmC1Cv-81" value="Seguimiento del&#xa;Equipo de IT" style="labelBackgroundColor=none;fillColor=#A8DADC;strokeColor=#457B9D;fontColor=#1D3557;" vertex="1" parent="2">
          <mxGeometry x="127.75" y="674" width="110" height="50" as="geometry" />
        </mxCell>
        <mxCell id="8S9cBLbXIqOXu_hmC1Cv-82" value="" style="edgeStyle=none;strokeColor=#457B9D;endArrow=open;endFill=1;rounded=0;entryX=0.5;entryY=0;entryDx=0;entryDy=0;exitX=0.5;exitY=1;exitDx=0;exitDy=0;labelBackgroundColor=none;fontColor=default;" edge="1" parent="2" target="8S9cBLbXIqOXu_hmC1Cv-81">
          <mxGeometry width="100" height="100" relative="1" as="geometry">
            <mxPoint x="70.01" y="599" as="sourcePoint" />
            <mxPoint x="180.01" y="665" as="targetPoint" />
            <Array as="points">
              <mxPoint x="70.01" y="635" />
              <mxPoint x="182.76" y="635" />
            </Array>
          </mxGeometry>
        </mxCell>
        <mxCell id="8S9cBLbXIqOXu_hmC1Cv-83" value="" style="edgeStyle=none;strokeColor=#457B9D;endArrow=open;endFill=1;rounded=0;exitX=0.5;exitY=1;exitDx=0;exitDy=0;entryX=0.5;entryY=0;entryDx=0;entryDy=0;labelBackgroundColor=none;fontColor=default;" edge="1" parent="2" target="8S9cBLbXIqOXu_hmC1Cv-81">
          <mxGeometry width="100" height="100" relative="1" as="geometry">
            <mxPoint x="297.76" y="599" as="sourcePoint" />
            <mxPoint x="187.76" y="665" as="targetPoint" />
            <Array as="points">
              <mxPoint x="297.76" y="635" />
              <mxPoint x="182.76" y="635" />
            </Array>
          </mxGeometry>
        </mxCell>
        <mxCell id="8S9cBLbXIqOXu_hmC1Cv-91" value="Ejecutar simulacro &#xa;controlado de &#xa;ransonware" style="labelBackgroundColor=none;fillColor=#A8DADC;strokeColor=#457B9D;fontColor=#1D3557;" vertex="1" parent="2">
          <mxGeometry x="116.13" y="1056" width="117.75" height="58" as="geometry" />
        </mxCell>
        <mxCell id="8S9cBLbXIqOXu_hmC1Cv-95" value="El bloqueo es &#xa;exitoso_" style="rhombus;fillColor=#A8DADC;strokeColor=#457B9D;labelBackgroundColor=none;fontColor=#1D3557;" vertex="1" parent="2">
          <mxGeometry x="92.25" y="1148" width="165.5" height="100" as="geometry" />
        </mxCell>
        <mxCell id="8S9cBLbXIqOXu_hmC1Cv-96" value="Documentar&#xa;evidencia del &#xa;sistema" style="labelBackgroundColor=none;fillColor=#A8DADC;strokeColor=#457B9D;fontColor=#1D3557;" vertex="1" parent="2">
          <mxGeometry x="10" y="1240" width="110" height="50" as="geometry" />
        </mxCell>
        <mxCell id="8S9cBLbXIqOXu_hmC1Cv-97" value="Ajusta reglas de &#xa;deteccion y &#xa;respuesta" style="labelBackgroundColor=none;fillColor=#A8DADC;strokeColor=#457B9D;fontColor=#1D3557;" vertex="1" parent="2">
          <mxGeometry x="230" y="1240" width="110" height="50" as="geometry" />
        </mxCell>
        <mxCell id="8S9cBLbXIqOXu_hmC1Cv-98" value="" style="edgeStyle=none;strokeColor=#457B9D;endArrow=open;endFill=1;rounded=0;entryX=0.5;entryY=0;entryDx=0;entryDy=0;exitX=1;exitY=0.5;exitDx=0;exitDy=0;labelBackgroundColor=none;fontColor=default;" edge="1" parent="2" source="8S9cBLbXIqOXu_hmC1Cv-95" target="8S9cBLbXIqOXu_hmC1Cv-97">
          <mxGeometry width="100" height="100" relative="1" as="geometry">
            <mxPoint x="260" y="1198" as="sourcePoint" />
            <mxPoint x="257.75" y="1259" as="targetPoint" />
            <Array as="points">
              <mxPoint x="285" y="1199" />
            </Array>
          </mxGeometry>
        </mxCell>
        <mxCell id="8S9cBLbXIqOXu_hmC1Cv-99" value="" style="edgeStyle=none;strokeColor=#457B9D;endArrow=open;endFill=1;rounded=0;exitX=0;exitY=0.5;exitDx=0;exitDy=0;entryX=0.5;entryY=0;entryDx=0;entryDy=0;labelBackgroundColor=none;fontColor=default;" edge="1" parent="2" target="8S9cBLbXIqOXu_hmC1Cv-96">
          <mxGeometry width="100" height="100" relative="1" as="geometry">
            <mxPoint x="92" y="1198" as="sourcePoint" />
            <mxPoint x="263.25" y="1279" as="targetPoint" />
            <Array as="points">
              <mxPoint x="65" y="1199" />
            </Array>
          </mxGeometry>
        </mxCell>
        <mxCell id="8S9cBLbXIqOXu_hmC1Cv-100" value="NO" style="text;html=1;align=center;verticalAlign=middle;resizable=0;points=[];autosize=1;strokeColor=none;fillColor=none;labelBackgroundColor=none;fontColor=#1D3557;" vertex="1" parent="2">
          <mxGeometry x="257.75" y="1168" width="40" height="30" as="geometry" />
        </mxCell>
        <mxCell id="8S9cBLbXIqOXu_hmC1Cv-101" value="SI" style="text;html=1;align=center;verticalAlign=middle;resizable=0;points=[];autosize=1;strokeColor=none;fillColor=none;labelBackgroundColor=none;fontColor=#1D3557;" vertex="1" parent="2">
          <mxGeometry x="62.25" y="1168" width="30" height="30" as="geometry" />
        </mxCell>
        <mxCell id="8S9cBLbXIqOXu_hmC1Cv-102" value="Monitoreo" style="labelBackgroundColor=none;fillColor=#A8DADC;strokeColor=#457B9D;fontColor=#1D3557;" vertex="1" parent="2">
          <mxGeometry x="127.75" y="1361" width="110" height="50" as="geometry" />
        </mxCell>
        <mxCell id="8S9cBLbXIqOXu_hmC1Cv-103" value="" style="edgeStyle=none;strokeColor=#457B9D;endArrow=open;endFill=1;rounded=0;entryX=0.5;entryY=0;entryDx=0;entryDy=0;exitX=0.5;exitY=1;exitDx=0;exitDy=0;labelBackgroundColor=none;fontColor=default;" edge="1" parent="2" target="8S9cBLbXIqOXu_hmC1Cv-102">
          <mxGeometry width="100" height="100" relative="1" as="geometry">
            <mxPoint x="70" y="1290" as="sourcePoint" />
            <mxPoint x="180" y="1356" as="targetPoint" />
            <Array as="points">
              <mxPoint x="70" y="1326" />
              <mxPoint x="182.75" y="1326" />
            </Array>
          </mxGeometry>
        </mxCell>
        <mxCell id="8S9cBLbXIqOXu_hmC1Cv-104" value="" style="edgeStyle=none;strokeColor=#457B9D;endArrow=open;endFill=1;rounded=0;exitX=0.5;exitY=1;exitDx=0;exitDy=0;entryX=0.5;entryY=0;entryDx=0;entryDy=0;labelBackgroundColor=none;fontColor=default;" edge="1" parent="2" target="8S9cBLbXIqOXu_hmC1Cv-102">
          <mxGeometry width="100" height="100" relative="1" as="geometry">
            <mxPoint x="297.75" y="1290" as="sourcePoint" />
            <mxPoint x="187.75" y="1356" as="targetPoint" />
            <Array as="points">
              <mxPoint x="297.75" y="1326" />
              <mxPoint x="182.75" y="1326" />
            </Array>
          </mxGeometry>
        </mxCell>
        <mxCell id="8S9cBLbXIqOXu_hmC1Cv-105" value="" style="edgeStyle=none;strokeColor=#457B9D;endArrow=open;endFill=1;rounded=0;exitX=0.5;exitY=1;exitDx=0;exitDy=0;entryX=0.5;entryY=0;entryDx=0;entryDy=0;labelBackgroundColor=none;fontColor=default;" edge="1" parent="2" source="8S9cBLbXIqOXu_hmC1Cv-91" target="8S9cBLbXIqOXu_hmC1Cv-95">
          <mxGeometry width="100" height="100" relative="1" as="geometry">
            <mxPoint x="-136.25" y="1034" as="sourcePoint" />
            <mxPoint x="-136.25" y="1066" as="targetPoint" />
          </mxGeometry>
        </mxCell>
        <mxCell id="3" value="Equipo IT" style="swimlane;whiteSpace=wrap;movable=1;resizable=1;rotatable=1;deletable=1;editable=1;locked=0;connectable=1;startSize=55;labelBackgroundColor=none;fillColor=#A8DADC;strokeColor=#457B9D;fontColor=#1D3557;" parent="1" vertex="1">
          <mxGeometry x="470" y="128" width="254.5" height="1681" as="geometry" />
        </mxCell>
        <mxCell id="8S9cBLbXIqOXu_hmC1Cv-85" value="Actualizar firmas&#xa;del AV en endpoints" style="labelBackgroundColor=none;fillColor=#A8DADC;strokeColor=#457B9D;fontColor=#1D3557;" vertex="1" parent="3">
          <mxGeometry x="68.37" y="670" width="117.75" height="58" as="geometry" />
        </mxCell>
        <mxCell id="8S9cBLbXIqOXu_hmC1Cv-86" value="Desplegar agentes&#xa;EDR faltantes" style="labelBackgroundColor=none;fillColor=#A8DADC;strokeColor=#457B9D;fontColor=#1D3557;" vertex="1" parent="3">
          <mxGeometry x="68.37" y="760" width="117.75" height="58" as="geometry" />
        </mxCell>
        <mxCell id="8S9cBLbXIqOXu_hmC1Cv-87" value="Conectar EDR con &#xa;SIEM institucional" style="labelBackgroundColor=none;fillColor=#A8DADC;strokeColor=#457B9D;fontColor=#1D3557;" vertex="1" parent="3">
          <mxGeometry x="68.37" y="858" width="117.75" height="58" as="geometry" />
        </mxCell>
        <mxCell id="8S9cBLbXIqOXu_hmC1Cv-89" value="" style="edgeStyle=none;strokeColor=#457B9D;endArrow=open;endFill=1;rounded=0;exitX=0.5;exitY=1;exitDx=0;exitDy=0;entryX=0.5;entryY=0;entryDx=0;entryDy=0;labelBackgroundColor=none;fontColor=default;" edge="1" parent="3" source="8S9cBLbXIqOXu_hmC1Cv-85" target="8S9cBLbXIqOXu_hmC1Cv-86">
          <mxGeometry width="100" height="100" relative="1" as="geometry">
            <mxPoint x="-105.88" y="706" as="sourcePoint" />
            <mxPoint x="78.12" y="709" as="targetPoint" />
          </mxGeometry>
        </mxCell>
        <mxCell id="8S9cBLbXIqOXu_hmC1Cv-90" value="" style="edgeStyle=none;strokeColor=#457B9D;endArrow=open;endFill=1;rounded=0;exitX=0.5;exitY=1;exitDx=0;exitDy=0;entryX=0.5;entryY=0;entryDx=0;entryDy=0;labelBackgroundColor=none;fontColor=default;" edge="1" parent="3" source="8S9cBLbXIqOXu_hmC1Cv-86" target="8S9cBLbXIqOXu_hmC1Cv-87">
          <mxGeometry width="100" height="100" relative="1" as="geometry">
            <mxPoint x="137.12" y="738" as="sourcePoint" />
            <mxPoint x="137.12" y="770" as="targetPoint" />
          </mxGeometry>
        </mxCell>
        <mxCell id="4" value="SOC (Centro de opreaciones de Seguridad)" style="swimlane;whiteSpace=wrap;startSize=55;labelBackgroundColor=none;fillColor=#A8DADC;strokeColor=#457B9D;fontColor=#1D3557;" parent="1" vertex="1">
          <mxGeometry x="724.5" y="128" width="353.5" height="1681" as="geometry" />
        </mxCell>
        <mxCell id="8S9cBLbXIqOXu_hmC1Cv-114" value="Configurar reglas de deteccion&#xa;especificas de &#xa;ransomware" style="labelBackgroundColor=none;fillColor=#A8DADC;strokeColor=#457B9D;fontColor=#1D3557;" vertex="1" parent="4">
          <mxGeometry x="89.5" y="858" width="174.5" height="58" as="geometry" />
        </mxCell>
        <mxCell id="8S9cBLbXIqOXu_hmC1Cv-115" value="Activar alertas automaticas &#xa;ante comportamiento&#xa;sospechoso" style="labelBackgroundColor=none;fillColor=#A8DADC;strokeColor=#457B9D;fontColor=#1D3557;" vertex="1" parent="4">
          <mxGeometry x="89.5" y="960" width="174.5" height="58" as="geometry" />
        </mxCell>
        <mxCell id="8S9cBLbXIqOXu_hmC1Cv-116" value="Habilitar al aislamiento &#xa;automatico de equipos&#xa;infectados" style="labelBackgroundColor=none;fillColor=#A8DADC;strokeColor=#457B9D;fontColor=#1D3557;" vertex="1" parent="4">
          <mxGeometry x="89.5" y="1058" width="174.5" height="58" as="geometry" />
        </mxCell>
        <mxCell id="8S9cBLbXIqOXu_hmC1Cv-117" value="" style="edgeStyle=none;strokeColor=#457B9D;endArrow=open;endFill=1;rounded=0;exitX=0.5;exitY=1;exitDx=0;exitDy=0;entryX=0.5;entryY=0;entryDx=0;entryDy=0;labelBackgroundColor=none;fontColor=default;" edge="1" parent="4" source="8S9cBLbXIqOXu_hmC1Cv-114" target="8S9cBLbXIqOXu_hmC1Cv-115">
          <mxGeometry width="100" height="100" relative="1" as="geometry">
            <mxPoint x="-84.75" y="906" as="sourcePoint" />
            <mxPoint x="99.25" y="909" as="targetPoint" />
          </mxGeometry>
        </mxCell>
        <mxCell id="8S9cBLbXIqOXu_hmC1Cv-118" value="" style="edgeStyle=none;strokeColor=#457B9D;endArrow=open;endFill=1;rounded=0;exitX=0.5;exitY=1;exitDx=0;exitDy=0;entryX=0.5;entryY=0;entryDx=0;entryDy=0;labelBackgroundColor=none;fontColor=default;" edge="1" parent="4" source="8S9cBLbXIqOXu_hmC1Cv-115" target="8S9cBLbXIqOXu_hmC1Cv-116">
          <mxGeometry width="100" height="100" relative="1" as="geometry">
            <mxPoint x="158.25" y="938" as="sourcePoint" />
            <mxPoint x="158.25" y="970" as="targetPoint" />
          </mxGeometry>
        </mxCell>
        <mxCell id="8S9cBLbXIqOXu_hmC1Cv-106" value="Monitorear eventos&#xa;en tiempo&#xa;real" style="labelBackgroundColor=none;fillColor=#A8DADC;strokeColor=#457B9D;fontColor=#1D3557;" vertex="1" parent="4">
          <mxGeometry x="117.88" y="1361" width="117.75" height="58" as="geometry" />
        </mxCell>
        <mxCell id="8S9cBLbXIqOXu_hmC1Cv-107" value="Analizar métricas&#xa;de eficacia del &#xa;sistema" style="labelBackgroundColor=none;fillColor=#A8DADC;strokeColor=#457B9D;fontColor=#1D3557;" vertex="1" parent="4">
          <mxGeometry x="117.88" y="1451" width="117.75" height="58" as="geometry" />
        </mxCell>
        <mxCell id="8S9cBLbXIqOXu_hmC1Cv-108" value="Emitir informe &#xa;mensual al&#xa;comité de seguridad" style="labelBackgroundColor=none;fillColor=#A8DADC;strokeColor=#457B9D;fontColor=#1D3557;" vertex="1" parent="4">
          <mxGeometry x="117.88" y="1549" width="117.75" height="58" as="geometry" />
        </mxCell>
        <mxCell id="8S9cBLbXIqOXu_hmC1Cv-109" value="" style="edgeStyle=none;strokeColor=#457B9D;endArrow=open;endFill=1;rounded=0;exitX=0.5;exitY=1;exitDx=0;exitDy=0;entryX=0.5;entryY=0;entryDx=0;entryDy=0;labelBackgroundColor=none;fontColor=default;" edge="1" parent="4" source="8S9cBLbXIqOXu_hmC1Cv-106" target="8S9cBLbXIqOXu_hmC1Cv-107">
          <mxGeometry width="100" height="100" relative="1" as="geometry">
            <mxPoint x="-56.37" y="1397" as="sourcePoint" />
            <mxPoint x="127.63" y="1400" as="targetPoint" />
          </mxGeometry>
        </mxCell>
        <mxCell id="8S9cBLbXIqOXu_hmC1Cv-110" value="" style="edgeStyle=none;strokeColor=#457B9D;endArrow=open;endFill=1;rounded=0;exitX=0.5;exitY=1;exitDx=0;exitDy=0;entryX=0.5;entryY=0;entryDx=0;entryDy=0;labelBackgroundColor=none;fontColor=default;" edge="1" parent="4" source="8S9cBLbXIqOXu_hmC1Cv-107" target="8S9cBLbXIqOXu_hmC1Cv-108">
          <mxGeometry width="100" height="100" relative="1" as="geometry">
            <mxPoint x="186.63" y="1429" as="sourcePoint" />
            <mxPoint x="186.63" y="1461" as="targetPoint" />
          </mxGeometry>
        </mxCell>
        <mxCell id="38" value="" style="ellipse;shape=endState;fillColor=#000000;strokeColor=#457B9D;labelBackgroundColor=none;fontColor=#1D3557;" parent="4" vertex="1">
          <mxGeometry x="161.76" y="1631" width="30" height="30" as="geometry" />
        </mxCell>
        <mxCell id="39" value="" style="endArrow=open;strokeColor=#457B9D;endFill=1;rounded=0;exitX=0.5;exitY=1;exitDx=0;exitDy=0;labelBackgroundColor=none;fontColor=default;" parent="4" source="8S9cBLbXIqOXu_hmC1Cv-108" target="38" edge="1">
          <mxGeometry relative="1" as="geometry">
            <mxPoint x="175.62999999999954" y="1611" as="sourcePoint" />
          </mxGeometry>
        </mxCell>
        <mxCell id="8S9cBLbXIqOXu_hmC1Cv-88" value="" style="edgeStyle=none;strokeColor=#457B9D;endArrow=open;endFill=1;rounded=0;exitX=1;exitY=0.5;exitDx=0;exitDy=0;entryX=0;entryY=0.5;entryDx=0;entryDy=0;labelBackgroundColor=none;fontColor=default;" edge="1" parent="1" source="8S9cBLbXIqOXu_hmC1Cv-81" target="8S9cBLbXIqOXu_hmC1Cv-85">
          <mxGeometry width="100" height="100" relative="1" as="geometry">
            <mxPoint x="704.5" y="567.5" as="sourcePoint" />
            <mxPoint x="824.5" y="568" as="targetPoint" />
          </mxGeometry>
        </mxCell>
        <mxCell id="8S9cBLbXIqOXu_hmC1Cv-111" value="" style="edgeStyle=none;strokeColor=#457B9D;endArrow=open;endFill=1;rounded=0;exitX=1;exitY=0.5;exitDx=0;exitDy=0;entryX=0;entryY=0.5;entryDx=0;entryDy=0;labelBackgroundColor=none;fontColor=default;" edge="1" parent="1" source="8S9cBLbXIqOXu_hmC1Cv-102" target="8S9cBLbXIqOXu_hmC1Cv-106">
          <mxGeometry width="100" height="100" relative="1" as="geometry">
            <mxPoint x="670" y="1087" as="sourcePoint" />
            <mxPoint x="860" y="1582" as="targetPoint" />
          </mxGeometry>
        </mxCell>
        <mxCell id="8S9cBLbXIqOXu_hmC1Cv-92" value="" style="edgeStyle=none;strokeColor=#457B9D;endArrow=open;endFill=1;rounded=0;exitX=0;exitY=0.5;exitDx=0;exitDy=0;entryX=1;entryY=0.5;entryDx=0;entryDy=0;labelBackgroundColor=none;fontColor=default;" edge="1" parent="1" source="8S9cBLbXIqOXu_hmC1Cv-116" target="8S9cBLbXIqOXu_hmC1Cv-91">
          <mxGeometry width="100" height="100" relative="1" as="geometry">
            <mxPoint x="368" y="896" as="sourcePoint" />
            <mxPoint x="390" y="1110" as="targetPoint" />
          </mxGeometry>
        </mxCell>
        <mxCell id="8S9cBLbXIqOXu_hmC1Cv-119" value="" style="edgeStyle=none;strokeColor=#457B9D;endArrow=open;endFill=1;rounded=0;exitX=1;exitY=0.5;exitDx=0;exitDy=0;entryX=0;entryY=0.5;entryDx=0;entryDy=0;labelBackgroundColor=none;fontColor=default;" edge="1" parent="1" source="8S9cBLbXIqOXu_hmC1Cv-87" target="8S9cBLbXIqOXu_hmC1Cv-114">
          <mxGeometry width="100" height="100" relative="1" as="geometry">
            <mxPoint x="552" y="1087" as="sourcePoint" />
            <mxPoint x="364" y="1087" as="targetPoint" />
          </mxGeometry>
        </mxCell>
      </root>
    </mxGraphModel>
  </diagram>
</mxfile>
